# link: https://viewer.diagrams.net/?highlight=0000ff&edit=_blank&layers=1&nav=1&title=Untitled%20Diagram.drawio#R7Z1bc%2BMmFIB%2FjWfSh3R0tZ3H2Nlkm03bdLPdyyOWsM0aC1ciF%2BfXl5tkJCFbvqrjaiaTCIRA4jvA4RwgHXc4f7uLwWL6Owkh7jhW%2BNZxbzqOY3uO0%2BE%2FVriUMb2uKyMmMQpVolXEE3qHKtJSsc8ohEkuISUEU7TIRwYkimBAc3EgjslrPtmY4HypCzCBpYinAOBy7DcU0qmM7Tu9VfxHiCbTtGS7eyXvzEGaWH1JMgUhedWi3A8ddxgTQuXV%2FG0IMa%2B8tF6%2B%2Fbb8hh9m3bv7v5J%2FwN%2BDT1%2F%2B%2BHopM7vd5pHsE2IY0Z2zfp%2BNbz9%2B9X5%2BXzze%2FvVq3V2P7i%2FVI9YLwM%2BqvgYExKH6YLpMazF5RXMMIhYajElEn9Qdm4UBRpOIXQfs5WDMIl5gTBEDcK1uULJgscEU4fABLMkz%2F4SEgmCWhgZTEqN3li3AKk92O6ZKlpxuLsUTf5JFWyw2hglL85jWi51FPYCEqjQBwRgsEjTKXngO4gmKBoRSMk8zIs9RCEMVykCLAI3JLBMd%2FnxNGooarw34psmionMHyRzSeMmSpHcVjGU%2B%2BLqSWtdScVNNYnt%2BX7UW1VImWc5ZYZ9ZywLRhFVBVhrLLF%2BcVy7P7hrKYzxyxQHMsEeAwgGvxESXQXahfegqSkjmFlJql6T0kgVHQlLda3b5iGAAO%2F6g49%2Bo30UBZgyoJqwYjmmlqCYLEKBo8iDS3HirmM%2BqFngUYc%2BOsRCTKQpDGAkxooACKWlcdhYERVRUE3%2BpAavMofWrL15vyML2Ksx%2BePKYDknEJA4gIVqQifEr5KJsELq17Xmz0C3zNDdJWZG6LmQ53NuydYxsxzGYQ8n2%2FlZcnxvQNV3OlM6xujwWdt9pGLtrxM6UBQX9kQ02uIV%2BUOi9fsPQfSP0YAqDGYyTwao%2FP1P8xwJrW97pyP45vhv8ef%2F%2B%2Bfv45X0Y9r7%2B%2Fvp0VzFCz2GSCPVcMH0Ao7NlWmJVF3M1U7em%2Fnc0puaRmenTiSQpqD7RmNV%2FS7UuVf%2BE%2BpaRqnngZfPsFurOUPsn1KaMUL0qqIkEyquipVmPpmOdUE0y0qxQk1jHq9G0WqB1gbpNa0ddI1D1Om373BJnt2nFqGfEmRbd8tySZ79plahvHj1h%2BAWCuQQqrlqi9Yi6dtP60JWR6AiDYNYy3Y2p27RWlPpDNKglejAKr7nPkIUiIrxVyqy28tvAsOQv3K1itIrwDfWQxsUQA4pe8mWucdU8EqnepfXe9fKPJOQ5DqBK5WjuvvTBFHs6TFZlREE8gbSU0Q4%2BGzOu8pyk4zAGljDzXXS4nLhv15zL0OlcW%2Bq3mrUw9XY1kA6rEwulWEv8i560bds123a3poLsH61tl6c8UlhQhChiwN7h3d%2B%2FXfySoX4hLL%2BWbz2%2BntO0xmyXVWbJl%2FVAn6WepcFtB%2BZt4HpNq892WdvK4A5YVEt3D7q9plVpx6R2cbohShYYLC9GhGAIorZv3g3wVdN6tVP23WXNVyy90Nruma7FOBZc32na8pjOkUxwxaKpRKP7f1lFdQTQftMallP260nQJEYTFAE8AMFsItafDAkm8YWcLCIxu1IehZ8rUeARrQhsJQK9pvUwp2oSFcMEUkGdVX07idqNb9dqXBMru5Ek35%2FP84WxPeuBmR7AMnAdx2D5gFi9OV0sK687kX8tiaQVlt2ExWlcq6uacQcgutfk5VdT71%2BSC204SAWklYR6kuA3rgKW3VtSEmasxu%2Bruo5WGI4hDP3G1cQqW82C6%2F7XdIMsyBlCi7se7p7VtEroVhlveNsf8nXXG4C3o%2F42vN2mVcTUSau7RMMJTLfrsTqZkglhs8EPq9jCpoRVmgfCCQrX6U9I6VLtxwPPlHRyjlVWZ%2FHyu3peBH7wAKOhgjdv%2Bs2bZUff57DWIbtuZ530hK6hZas5sfR0rklYtby%2Btu92r10RdnnqbrSRt3swj78H001H6My74peatHFXZLZ9crtdmK6XL881aAh27z%2ByC9O8yjjKduqly8YzD7y%2Bu0fz55%2B7h37jMJK1%2BH22aRrF0POqpXC%2FTspkXCrQw6i45KbccDegnTNIYlBSLL%2BIIejSLvF2y7xdA1vMNzU8kgRRRHj%2BsUxbYN4Y1p6htZuwrtnhvZ%2B%2BUGUyZOPlH3nXT6lxZwmHqoVf5M3HZ9%2FMd1EgpYhss0PTKA9d51jN3GRjLGqUq0V2I0y4IsD0uvTkD1uqeeEtwul21g1DeX7c19VViEfkVddURQS7kUrK1orA4VRGy6i8rl0lmJHcdUlgenJD4aAIt%2Bfms6i7RNAtZOT0Cu9SsURQWIS0ZKplVb6wWzhqwvWt9e%2FlF9K769N7hfy9q%2FXp%2FWIF9q%2FWv09xKeWm9y%2Bm9zakLyqB%2BfTsQtb4YbW5soHYbN1ppx3Hn3b4BYk3uJMd0zjg7jbrKBb3nz77xbw74%2B3cN9psViV6taWsehJhlKqjnf9gWCl4KV%2FvXFke9MCP7Ykbjnk5LXHD6kFOnJufJXS1erAFf1jwhonEicGbTwSh5737qmHqpnNgTozdMWKfsqIxLx6GbbM%2FpgAYDo05sQCY1iG2dsJ9uRqOjTFyPYCh0Iy1ajffBNLvawx%2FKsmPzUmMu0QKyZJ8YdI5XU7zo0aaQnHGZFOQFJJl3VY5w4%2BrLq5qS0ThIZToz9Qq5BNfwFk390%2F51Z7mbNONlBglFEbrasR8eWb99%2FFasGGPpbEF24fYZGluw9vZdslCVPZ21tvM8GvvYMsds0fFMmXxLu64H8AgyErV7oz6vuebB9K9rL8Kx0bjb4p%2Fo%2FVXiQaXvpyBUr3QnobgorPaviq4Beoagn1vQ0YVhuBSRpdFS2YhHzIes15Mz2JbW7Jn5UvonsBUalg0x4YG0SMz6QWVZxpqCo6wTVZ2WbxXqmNOzbQeoa4UdnR0sjMPtjJpCpuu8t049XvArDMpO8HUSe7qazv6Yem1GsfVQRpHtu41NX75m0TxUCcfuGVxCeGY6byhLF4cLcMvI%2F5bHEpSQ4LqC8dmWeNLuBLFvFPTnVndsVYvpin6WQyzE9t0doazxqq93zl5ZXNU8ByLj1RLYPmbEBwKV7e0VpyninME2sXRaFenQg3aLLj6vwuy3a7%2Be4X74V8%3D


<mxfile host="app.diagrams.net" modified="2020-11-15T19:29:41.881Z" agent="5.0 (Windows)" etag="ON1WI5UpYYfvf1sf4wzX" version="13.9.8" type="github">
  <diagram id="C5RBs43oDa-KdzZeNtuy" name="Page-1">
    <mxGraphModel dx="1422" dy="763" grid="1" gridSize="10" guides="1" tooltips="1" connect="1" arrows="1" fold="1" page="1" pageScale="1" pageWidth="827" pageHeight="1169" math="0" shadow="0">
      <root>
        <mxCell id="WIyWlLk6GJQsqaUBKTNV-0" />
        <mxCell id="WIyWlLk6GJQsqaUBKTNV-1" parent="WIyWlLk6GJQsqaUBKTNV-0" />
        <mxCell id="zkfFHV4jXpPFQw0GAbJ--0" value="Board" style="swimlane;fontStyle=1;align=center;verticalAlign=top;childLayout=stackLayout;horizontal=1;startSize=26;horizontalStack=0;resizeParent=1;resizeLast=0;collapsible=1;marginBottom=0;rounded=0;shadow=0;strokeWidth=1;" parent="WIyWlLk6GJQsqaUBKTNV-1" vertex="1">
          <mxGeometry x="10" y="10" width="300" height="758" as="geometry">
            <mxRectangle x="230" y="140" width="160" height="26" as="alternateBounds" />
          </mxGeometry>
        </mxCell>
        <mxCell id="zkfFHV4jXpPFQw0GAbJ--1" value="- board: Piece[][]" style="text;align=left;verticalAlign=top;spacingLeft=4;spacingRight=4;overflow=hidden;rotatable=0;points=[[0,0.5],[1,0.5]];portConstraint=eastwest;" parent="zkfFHV4jXpPFQw0GAbJ--0" vertex="1">
          <mxGeometry y="26" width="300" height="26" as="geometry" />
        </mxCell>
        <mxCell id="zkfFHV4jXpPFQw0GAbJ--2" value="- frame: JFrame" style="text;align=left;verticalAlign=top;spacingLeft=4;spacingRight=4;overflow=hidden;rotatable=0;points=[[0,0.5],[1,0.5]];portConstraint=eastwest;rounded=0;shadow=0;html=0;" parent="zkfFHV4jXpPFQw0GAbJ--0" vertex="1">
          <mxGeometry y="52" width="300" height="26" as="geometry" />
        </mxCell>
        <mxCell id="zkfFHV4jXpPFQw0GAbJ--3" value="- gui: JPanel" style="text;align=left;verticalAlign=top;spacingLeft=4;spacingRight=4;overflow=hidden;rotatable=0;points=[[0,0.5],[1,0.5]];portConstraint=eastwest;rounded=0;shadow=0;html=0;" parent="zkfFHV4jXpPFQw0GAbJ--0" vertex="1">
          <mxGeometry y="78" width="300" height="26" as="geometry" />
        </mxCell>
        <mxCell id="zkfFHV4jXpPFQw0GAbJ--5" value="- checkersBoard: JPanel" style="text;align=left;verticalAlign=top;spacingLeft=4;spacingRight=4;overflow=hidden;rotatable=0;points=[[0,0.5],[1,0.5]];portConstraint=eastwest;" parent="zkfFHV4jXpPFQw0GAbJ--0" vertex="1">
          <mxGeometry y="104" width="300" height="26" as="geometry" />
        </mxCell>
        <mxCell id="OfGBOJzRXfvzCd7VMwSG-1" value="- message: JLabel" style="text;align=left;verticalAlign=top;spacingLeft=4;spacingRight=4;overflow=hidden;rotatable=0;points=[[0,0.5],[1,0.5]];portConstraint=eastwest;" vertex="1" parent="zkfFHV4jXpPFQw0GAbJ--0">
          <mxGeometry y="130" width="300" height="26" as="geometry" />
        </mxCell>
        <mxCell id="OfGBOJzRXfvzCd7VMwSG-2" value="- colsLabel: String" style="text;align=left;verticalAlign=top;spacingLeft=4;spacingRight=4;overflow=hidden;rotatable=0;points=[[0,0.5],[1,0.5]];portConstraint=eastwest;" vertex="1" parent="zkfFHV4jXpPFQw0GAbJ--0">
          <mxGeometry y="156" width="300" height="26" as="geometry" />
        </mxCell>
        <mxCell id="OfGBOJzRXfvzCd7VMwSG-3" value="- rowLabel: String" style="text;align=left;verticalAlign=top;spacingLeft=4;spacingRight=4;overflow=hidden;rotatable=0;points=[[0,0.5],[1,0.5]];portConstraint=eastwest;" vertex="1" parent="zkfFHV4jXpPFQw0GAbJ--0">
          <mxGeometry y="182" width="300" height="26" as="geometry" />
        </mxCell>
        <mxCell id="OfGBOJzRXfvzCd7VMwSG-4" value="- rows: int" style="text;align=left;verticalAlign=top;spacingLeft=4;spacingRight=4;overflow=hidden;rotatable=0;points=[[0,0.5],[1,0.5]];portConstraint=eastwest;" vertex="1" parent="zkfFHV4jXpPFQw0GAbJ--0">
          <mxGeometry y="208" width="300" height="26" as="geometry" />
        </mxCell>
        <mxCell id="OfGBOJzRXfvzCd7VMwSG-5" value="- cols: int " style="text;align=left;verticalAlign=top;spacingLeft=4;spacingRight=4;overflow=hidden;rotatable=0;points=[[0,0.5],[1,0.5]];portConstraint=eastwest;" vertex="1" parent="zkfFHV4jXpPFQw0GAbJ--0">
          <mxGeometry y="234" width="300" height="26" as="geometry" />
        </mxCell>
        <mxCell id="OfGBOJzRXfvzCd7VMwSG-6" value="- width: int" style="text;align=left;verticalAlign=top;spacingLeft=4;spacingRight=4;overflow=hidden;rotatable=0;points=[[0,0.5],[1,0.5]];portConstraint=eastwest;" vertex="1" parent="zkfFHV4jXpPFQw0GAbJ--0">
          <mxGeometry y="260" width="300" height="26" as="geometry" />
        </mxCell>
        <mxCell id="OfGBOJzRXfvzCd7VMwSG-7" value="- height: int" style="text;align=left;verticalAlign=top;spacingLeft=4;spacingRight=4;overflow=hidden;rotatable=0;points=[[0,0.5],[1,0.5]];portConstraint=eastwest;" vertex="1" parent="zkfFHV4jXpPFQw0GAbJ--0">
          <mxGeometry y="286" width="300" height="26" as="geometry" />
        </mxCell>
        <mxCell id="OfGBOJzRXfvzCd7VMwSG-8" value="- redTeam: Team" style="text;align=left;verticalAlign=top;spacingLeft=4;spacingRight=4;overflow=hidden;rotatable=0;points=[[0,0.5],[1,0.5]];portConstraint=eastwest;" vertex="1" parent="zkfFHV4jXpPFQw0GAbJ--0">
          <mxGeometry y="312" width="300" height="26" as="geometry" />
        </mxCell>
        <mxCell id="OfGBOJzRXfvzCd7VMwSG-9" value="- blackTeam: Team" style="text;align=left;verticalAlign=top;spacingLeft=4;spacingRight=4;overflow=hidden;rotatable=0;points=[[0,0.5],[1,0.5]];portConstraint=eastwest;" vertex="1" parent="zkfFHV4jXpPFQw0GAbJ--0">
          <mxGeometry y="338" width="300" height="26" as="geometry" />
        </mxCell>
        <mxCell id="OfGBOJzRXfvzCd7VMwSG-10" value="" style="endArrow=none;html=1;" edge="1" parent="zkfFHV4jXpPFQw0GAbJ--0">
          <mxGeometry width="50" height="50" relative="1" as="geometry">
            <mxPoint y="364" as="sourcePoint" />
            <mxPoint x="160" y="364" as="targetPoint" />
          </mxGeometry>
        </mxCell>
        <mxCell id="OfGBOJzRXfvzCd7VMwSG-14" value="+ Board(&#xa;   rows : int,&#xa;   cols : int)&#xa;" style="text;align=left;verticalAlign=top;spacingLeft=4;spacingRight=4;overflow=hidden;rotatable=0;points=[[0,0.5],[1,0.5]];portConstraint=eastwest;" vertex="1" parent="zkfFHV4jXpPFQw0GAbJ--0">
          <mxGeometry y="364" width="300" height="56" as="geometry" />
        </mxCell>
        <mxCell id="OfGBOJzRXfvzCd7VMwSG-15" value="+ initializeGUI() : void" style="text;align=left;verticalAlign=top;spacingLeft=4;spacingRight=4;overflow=hidden;rotatable=0;points=[[0,0.5],[1,0.5]];portConstraint=eastwest;" vertex="1" parent="zkfFHV4jXpPFQw0GAbJ--0">
          <mxGeometry y="420" width="300" height="26" as="geometry" />
        </mxCell>
        <mxCell id="OfGBOJzRXfvzCd7VMwSG-17" value="+ getRedTeam() : Team" style="text;align=left;verticalAlign=top;spacingLeft=4;spacingRight=4;overflow=hidden;rotatable=0;points=[[0,0.5],[1,0.5]];portConstraint=eastwest;" vertex="1" parent="zkfFHV4jXpPFQw0GAbJ--0">
          <mxGeometry y="446" width="300" height="26" as="geometry" />
        </mxCell>
        <mxCell id="OfGBOJzRXfvzCd7VMwSG-19" value="+ getBlueTeam() : Team" style="text;align=left;verticalAlign=top;spacingLeft=4;spacingRight=4;overflow=hidden;rotatable=0;points=[[0,0.5],[1,0.5]];portConstraint=eastwest;" vertex="1" parent="zkfFHV4jXpPFQw0GAbJ--0">
          <mxGeometry y="472" width="300" height="26" as="geometry" />
        </mxCell>
        <mxCell id="OfGBOJzRXfvzCd7VMwSG-20" value="+ display(boolean) : void" style="text;align=left;verticalAlign=top;spacingLeft=4;spacingRight=4;overflow=hidden;rotatable=0;points=[[0,0.5],[1,0.5]];portConstraint=eastwest;" vertex="1" parent="zkfFHV4jXpPFQw0GAbJ--0">
          <mxGeometry y="498" width="300" height="26" as="geometry" />
        </mxCell>
        <mxCell id="OfGBOJzRXfvzCd7VMwSG-21" value="+ getFrame() : JFrame" style="text;align=left;verticalAlign=top;spacingLeft=4;spacingRight=4;overflow=hidden;rotatable=0;points=[[0,0.5],[1,0.5]];portConstraint=eastwest;" vertex="1" parent="zkfFHV4jXpPFQw0GAbJ--0">
          <mxGeometry y="524" width="300" height="26" as="geometry" />
        </mxCell>
        <mxCell id="OfGBOJzRXfvzCd7VMwSG-22" value="+ getPieces() : Piece[][]" style="text;align=left;verticalAlign=top;spacingLeft=4;spacingRight=4;overflow=hidden;rotatable=0;points=[[0,0.5],[1,0.5]];portConstraint=eastwest;" vertex="1" parent="zkfFHV4jXpPFQw0GAbJ--0">
          <mxGeometry y="550" width="300" height="26" as="geometry" />
        </mxCell>
        <mxCell id="OfGBOJzRXfvzCd7VMwSG-23" value="+ originalBackgroundColor(int i, int j) : int[]" style="text;align=left;verticalAlign=top;spacingLeft=4;spacingRight=4;overflow=hidden;rotatable=0;points=[[0,0.5],[1,0.5]];portConstraint=eastwest;" vertex="1" parent="zkfFHV4jXpPFQw0GAbJ--0">
          <mxGeometry y="576" width="300" height="26" as="geometry" />
        </mxCell>
        <mxCell id="OfGBOJzRXfvzCd7VMwSG-25" value="+ resetColoring() : void" style="text;align=left;verticalAlign=top;spacingLeft=4;spacingRight=4;overflow=hidden;rotatable=0;points=[[0,0.5],[1,0.5]];portConstraint=eastwest;" vertex="1" parent="zkfFHV4jXpPFQw0GAbJ--0">
          <mxGeometry y="602" width="300" height="26" as="geometry" />
        </mxCell>
        <mxCell id="OfGBOJzRXfvzCd7VMwSG-26" value="+ jump(int i, int j, int k, int l, ArrayList&lt;&gt; points) : void" style="text;align=left;verticalAlign=top;spacingLeft=4;spacingRight=4;overflow=hidden;rotatable=0;points=[[0,0.5],[1,0.5]];portConstraint=eastwest;" vertex="1" parent="zkfFHV4jXpPFQw0GAbJ--0">
          <mxGeometry y="628" width="300" height="26" as="geometry" />
        </mxCell>
        <mxCell id="OfGBOJzRXfvzCd7VMwSG-27" value="+ canJump(int i. int j) : ArrayList&lt;int[]&gt;" style="text;align=left;verticalAlign=top;spacingLeft=4;spacingRight=4;overflow=hidden;rotatable=0;points=[[0,0.5],[1,0.5]];portConstraint=eastwest;" vertex="1" parent="zkfFHV4jXpPFQw0GAbJ--0">
          <mxGeometry y="654" width="300" height="26" as="geometry" />
        </mxCell>
        <mxCell id="OfGBOJzRXfvzCd7VMwSG-28" value="+ kingJump(int i, int j) : ArrayList&lt;int[]&gt;" style="text;align=left;verticalAlign=top;spacingLeft=4;spacingRight=4;overflow=hidden;rotatable=0;points=[[0,0.5],[1,0.5]];portConstraint=eastwest;" vertex="1" parent="zkfFHV4jXpPFQw0GAbJ--0">
          <mxGeometry y="680" width="300" height="26" as="geometry" />
        </mxCell>
        <mxCell id="OfGBOJzRXfvzCd7VMwSG-29" value="+ pieceAt(int i, int j) : Piece" style="text;align=left;verticalAlign=top;spacingLeft=4;spacingRight=4;overflow=hidden;rotatable=0;points=[[0,0.5],[1,0.5]];portConstraint=eastwest;" vertex="1" parent="zkfFHV4jXpPFQw0GAbJ--0">
          <mxGeometry y="706" width="300" height="26" as="geometry" />
        </mxCell>
        <mxCell id="OfGBOJzRXfvzCd7VMwSG-30" value="+ kingCheck(int i, int j) : void" style="text;align=left;verticalAlign=top;spacingLeft=4;spacingRight=4;overflow=hidden;rotatable=0;points=[[0,0.5],[1,0.5]];portConstraint=eastwest;" vertex="1" parent="zkfFHV4jXpPFQw0GAbJ--0">
          <mxGeometry y="732" width="300" height="26" as="geometry" />
        </mxCell>
        <mxCell id="OfGBOJzRXfvzCd7VMwSG-38" style="edgeStyle=orthogonalEdgeStyle;rounded=0;orthogonalLoop=1;jettySize=auto;html=1;entryX=0;entryY=0.5;entryDx=0;entryDy=0;" edge="1" parent="WIyWlLk6GJQsqaUBKTNV-1" source="zkfFHV4jXpPFQw0GAbJ--13" target="zkfFHV4jXpPFQw0GAbJ--21">
          <mxGeometry relative="1" as="geometry" />
        </mxCell>
        <mxCell id="zkfFHV4jXpPFQw0GAbJ--13" value="Team" style="swimlane;fontStyle=1;align=center;verticalAlign=top;childLayout=stackLayout;horizontal=1;startSize=26;horizontalStack=0;resizeParent=1;resizeLast=0;collapsible=1;marginBottom=0;rounded=0;shadow=0;strokeWidth=1;" parent="WIyWlLk6GJQsqaUBKTNV-1" vertex="1">
          <mxGeometry x="380" y="445" width="160" height="140" as="geometry">
            <mxRectangle x="340" y="380" width="170" height="26" as="alternateBounds" />
          </mxGeometry>
        </mxCell>
        <mxCell id="zkfFHV4jXpPFQw0GAbJ--14" value="- name: String&#xa;- checkers: int&#xa;" style="text;align=left;verticalAlign=top;spacingLeft=4;spacingRight=4;overflow=hidden;rotatable=0;points=[[0,0.5],[1,0.5]];portConstraint=eastwest;" parent="zkfFHV4jXpPFQw0GAbJ--13" vertex="1">
          <mxGeometry y="26" width="160" height="44" as="geometry" />
        </mxCell>
        <mxCell id="zkfFHV4jXpPFQw0GAbJ--15" value="" style="line;html=1;strokeWidth=1;align=left;verticalAlign=middle;spacingTop=-1;spacingLeft=3;spacingRight=3;rotatable=0;labelPosition=right;points=[];portConstraint=eastwest;" parent="zkfFHV4jXpPFQw0GAbJ--13" vertex="1">
          <mxGeometry y="70" width="160" height="8" as="geometry" />
        </mxCell>
        <mxCell id="OfGBOJzRXfvzCd7VMwSG-35" value="+ getName() : String&#xa;+ getCheckers() : int&#xa;" style="text;align=left;verticalAlign=top;spacingLeft=4;spacingRight=4;overflow=hidden;rotatable=0;points=[[0,0.5],[1,0.5]];portConstraint=eastwest;" vertex="1" parent="zkfFHV4jXpPFQw0GAbJ--13">
          <mxGeometry y="78" width="160" height="62" as="geometry" />
        </mxCell>
        <mxCell id="zkfFHV4jXpPFQw0GAbJ--16" value="" style="endArrow=block;endSize=10;endFill=0;shadow=0;strokeWidth=1;rounded=0;edgeStyle=elbowEdgeStyle;elbow=vertical;" parent="WIyWlLk6GJQsqaUBKTNV-1" source="zkfFHV4jXpPFQw0GAbJ--13" target="zkfFHV4jXpPFQw0GAbJ--0" edge="1">
          <mxGeometry width="160" relative="1" as="geometry">
            <mxPoint x="210" y="373" as="sourcePoint" />
            <mxPoint x="310" y="271" as="targetPoint" />
            <Array as="points">
              <mxPoint x="330" y="350" />
              <mxPoint x="350" y="330" />
              <mxPoint x="430" y="490" />
              <mxPoint x="510" y="389" />
              <mxPoint x="360" y="350" />
              <mxPoint x="360" y="340" />
              <mxPoint x="340" y="340" />
            </Array>
          </mxGeometry>
        </mxCell>
        <mxCell id="zkfFHV4jXpPFQw0GAbJ--17" value="Piece" style="swimlane;fontStyle=1;align=center;verticalAlign=top;childLayout=stackLayout;horizontal=1;startSize=26;horizontalStack=0;resizeParent=1;resizeLast=0;collapsible=1;marginBottom=0;rounded=0;shadow=0;strokeWidth=1;" parent="WIyWlLk6GJQsqaUBKTNV-1" vertex="1">
          <mxGeometry x="550" y="50" width="260" height="340" as="geometry">
            <mxRectangle x="550" y="140" width="160" height="26" as="alternateBounds" />
          </mxGeometry>
        </mxCell>
        <mxCell id="zkfFHV4jXpPFQw0GAbJ--18" value="- x: int" style="text;align=left;verticalAlign=top;spacingLeft=4;spacingRight=4;overflow=hidden;rotatable=0;points=[[0,0.5],[1,0.5]];portConstraint=eastwest;" parent="zkfFHV4jXpPFQw0GAbJ--17" vertex="1">
          <mxGeometry y="26" width="260" height="26" as="geometry" />
        </mxCell>
        <mxCell id="zkfFHV4jXpPFQw0GAbJ--19" value="- y: int" style="text;align=left;verticalAlign=top;spacingLeft=4;spacingRight=4;overflow=hidden;rotatable=0;points=[[0,0.5],[1,0.5]];portConstraint=eastwest;rounded=0;shadow=0;html=0;" parent="zkfFHV4jXpPFQw0GAbJ--17" vertex="1">
          <mxGeometry y="52" width="260" height="26" as="geometry" />
        </mxCell>
        <mxCell id="zkfFHV4jXpPFQw0GAbJ--20" value="- king: boolean" style="text;align=left;verticalAlign=top;spacingLeft=4;spacingRight=4;overflow=hidden;rotatable=0;points=[[0,0.5],[1,0.5]];portConstraint=eastwest;rounded=0;shadow=0;html=0;" parent="zkfFHV4jXpPFQw0GAbJ--17" vertex="1">
          <mxGeometry y="78" width="260" height="26" as="geometry" />
        </mxCell>
        <mxCell id="zkfFHV4jXpPFQw0GAbJ--21" value="- team: Team" style="text;align=left;verticalAlign=top;spacingLeft=4;spacingRight=4;overflow=hidden;rotatable=0;points=[[0,0.5],[1,0.5]];portConstraint=eastwest;rounded=0;shadow=0;html=0;" parent="zkfFHV4jXpPFQw0GAbJ--17" vertex="1">
          <mxGeometry y="104" width="260" height="26" as="geometry" />
        </mxCell>
        <mxCell id="zkfFHV4jXpPFQw0GAbJ--22" value="- highlighted: boolean" style="text;align=left;verticalAlign=top;spacingLeft=4;spacingRight=4;overflow=hidden;rotatable=0;points=[[0,0.5],[1,0.5]];portConstraint=eastwest;rounded=0;shadow=0;html=0;" parent="zkfFHV4jXpPFQw0GAbJ--17" vertex="1">
          <mxGeometry y="130" width="260" height="26" as="geometry" />
        </mxCell>
        <mxCell id="zkfFHV4jXpPFQw0GAbJ--23" value="" style="line;html=1;strokeWidth=1;align=left;verticalAlign=middle;spacingTop=-1;spacingLeft=3;spacingRight=3;rotatable=0;labelPosition=right;points=[];portConstraint=eastwest;" parent="zkfFHV4jXpPFQw0GAbJ--17" vertex="1">
          <mxGeometry y="156" width="260" height="8" as="geometry" />
        </mxCell>
        <mxCell id="zkfFHV4jXpPFQw0GAbJ--24" value="+ getX() : int&#xa;+ getY() : int&#xa;+ getTeam() : Team&#xa;+ setX() : void&#xa;+ setY() : void&#xa;+ setTeam() : void&#xa;+ hasTeam() : boolean&#xa;+ setHighlighted(boolean) : void&#xa;+ isHighlighted() : boolean&#xa;+ setKing(boolean) : void&#xa;+ isKing() : boolean&#xa;+  listen() : void&#xa;&#xa;&#xa;" style="text;align=left;verticalAlign=top;spacingLeft=4;spacingRight=4;overflow=hidden;rotatable=0;points=[[0,0.5],[1,0.5]];portConstraint=eastwest;" parent="zkfFHV4jXpPFQw0GAbJ--17" vertex="1">
          <mxGeometry y="164" width="260" height="156" as="geometry" />
        </mxCell>
        <mxCell id="zkfFHV4jXpPFQw0GAbJ--26" value="" style="endArrow=open;shadow=0;strokeWidth=1;rounded=0;endFill=1;edgeStyle=elbowEdgeStyle;elbow=vertical;fillColor=#f8cecc;strokeColor=#b85450;" parent="WIyWlLk6GJQsqaUBKTNV-1" source="zkfFHV4jXpPFQw0GAbJ--0" target="zkfFHV4jXpPFQw0GAbJ--17" edge="1">
          <mxGeometry x="0.5" y="41" relative="1" as="geometry">
            <mxPoint x="380" y="192" as="sourcePoint" />
            <mxPoint x="540" y="192" as="targetPoint" />
            <mxPoint x="-40" y="32" as="offset" />
            <Array as="points">
              <mxPoint x="400" y="60" />
            </Array>
          </mxGeometry>
        </mxCell>
        <mxCell id="zkfFHV4jXpPFQw0GAbJ--29" value="has several" style="text;html=1;resizable=0;points=[];;align=center;verticalAlign=middle;labelBackgroundColor=none;rounded=0;shadow=0;strokeWidth=1;fontSize=12;" parent="zkfFHV4jXpPFQw0GAbJ--26" vertex="1" connectable="0">
          <mxGeometry x="0.5" y="49" relative="1" as="geometry">
            <mxPoint x="-28" y="25" as="offset" />
          </mxGeometry>
        </mxCell>
        <mxCell id="OfGBOJzRXfvzCd7VMwSG-39" value="defined as red and black" style="text;html=1;align=center;verticalAlign=middle;resizable=0;points=[];autosize=1;" vertex="1" parent="WIyWlLk6GJQsqaUBKTNV-1">
          <mxGeometry x="310" y="330" width="150" height="20" as="geometry" />
        </mxCell>
        <mxCell id="OfGBOJzRXfvzCd7VMwSG-40" value="current piece holding team" style="text;align=left;verticalAlign=top;spacingLeft=4;spacingRight=4;overflow=hidden;rotatable=0;points=[[0,0.5],[1,0.5]];portConstraint=eastwest;" vertex="1" parent="WIyWlLk6GJQsqaUBKTNV-1">
          <mxGeometry x="380" y="140" width="160" height="26" as="geometry" />
        </mxCell>
      </root>
    </mxGraphModel>
  </diagram>
</mxfile>
